<svg width="21" height="20" viewBox="0 0 21 20" fill="none" xmlns="http://www.w3.org/2000/svg">
<path fill-rule="evenodd" clip-rule="evenodd" d="M7.74689 14.7074C7.55942 14.5199 7.4541 14.2656 7.4541 14.0004C7.4541 13.7352 7.55942 13.4809 7.74689 13.2934L11.0399 10.0004L7.74689 6.70741C7.56473 6.5188 7.46394 6.2662 7.46621 6.00401C7.46849 5.74181 7.57366 5.491 7.75907 5.30559C7.94448 5.12018 8.19529 5.01501 8.45749 5.01273C8.71968 5.01045 8.97229 5.11125 9.16089 5.29341L13.1609 9.29341C13.3484 9.48094 13.4537 9.73524 13.4537 10.0004C13.4537 10.2656 13.3484 10.5199 13.1609 10.7074L9.16089 14.7074C8.97336 14.8949 8.71905 15.0002 8.45389 15.0002C8.18872 15.0002 7.93442 14.8949 7.74689 14.7074Z" fill="#0994D0"/>
</svg>
