<svg width="28" height="28" viewBox="0 0 28 28" fill="none" xmlns="http://www.w3.org/2000/svg">
<g filter="url(#filter0_d_2779_6819)">
<path d="M10.6667 5.83333V2.5M17.3333 5.83333V2.5M9.83333 9.16667H18.1667M8.16667 17.5H19.8333C20.2754 17.5 20.6993 17.3244 21.0118 17.0118C21.3244 16.6993 21.5 16.2754 21.5 15.8333V5.83333C21.5 5.39131 21.3244 4.96738 21.0118 4.65482C20.6993 4.34226 20.2754 4.16667 19.8333 4.16667H8.16667C7.72464 4.16667 7.30072 4.34226 6.98816 4.65482C6.67559 4.96738 6.5 5.39131 6.5 5.83333V15.8333C6.5 16.2754 6.67559 16.6993 6.98816 17.0118C7.30072 17.3244 7.72464 17.5 8.16667 17.5Z" stroke="#8E8E8E" stroke-width="2" stroke-linecap="round" stroke-linejoin="round"/>
</g>
<defs>
<filter id="filter0_d_2779_6819" x="0" y="0" width="28" height="28" filterUnits="userSpaceOnUse" color-interpolation-filters="sRGB">
<feFlood flood-opacity="0" result="BackgroundImageFix"/>
<feColorMatrix in="SourceAlpha" type="matrix" values="0 0 0 0 0 0 0 0 0 0 0 0 0 0 0 0 0 0 127 0" result="hardAlpha"/>
<feOffset dy="4"/>
<feGaussianBlur stdDeviation="2"/>
<feComposite in2="hardAlpha" operator="out"/>
<feColorMatrix type="matrix" values="0 0 0 0 0 0 0 0 0 0 0 0 0 0 0 0 0 0 0.25 0"/>
<feBlend mode="normal" in2="BackgroundImageFix" result="effect1_dropShadow_2779_6819"/>
<feBlend mode="normal" in="SourceGraphic" in2="effect1_dropShadow_2779_6819" result="shape"/>
</filter>
</defs>
</svg>
