<svg width="14" height="15" viewBox="0 0 14 15" fill="none" xmlns="http://www.w3.org/2000/svg">
<path d="M7 4.2998V7.7998H9.625M12.25 7.7998C12.25 8.48924 12.1142 9.17193 11.8504 9.80889C11.5865 10.4459 11.1998 11.0246 10.7123 11.5121C10.2248 11.9996 9.64605 12.3863 9.00909 12.6502C8.37213 12.914 7.68944 13.0498 7 13.0498C6.31056 13.0498 5.62787 12.914 4.99091 12.6502C4.35395 12.3863 3.7752 11.9996 3.28769 11.5121C2.80018 11.0246 2.41347 10.4459 2.14963 9.80889C1.8858 9.17193 1.75 8.48924 1.75 7.7998C1.75 6.40742 2.30312 5.07206 3.28769 4.08749C4.27226 3.10293 5.60761 2.5498 7 2.5498C8.39239 2.5498 9.72774 3.10293 10.7123 4.08749C11.6969 5.07206 12.25 6.40742 12.25 7.7998Z" stroke="#6D3D0A" stroke-width="1.5" stroke-linecap="round" stroke-linejoin="round"/>
</svg>
