<svg width="20" height="20" viewBox="0 0 20 20" fill="none" xmlns="http://www.w3.org/2000/svg">
<path d="M13.1823 14.3226C12.3075 13.4478 11.1623 13.0085 10.0158 13.0046C8.85898 13.0006 7.70095 13.4399 6.81834 14.3226M19 10.0046C19 14.9752 14.9706 19.0046 10 19.0046C5.02944 19.0046 1 14.9752 1 10.0046C1 5.03408 5.02944 1.00464 10 1.00464C14.9706 1.00464 19 5.03408 19 10.0046ZM7.75 7.75464C7.75 8.16885 7.58211 8.50464 7.375 8.50464C7.16789 8.50464 7 8.16885 7 7.75464C7 7.34043 7.16789 7.00464 7.375 7.00464C7.58211 7.00464 7.75 7.34043 7.75 7.75464ZM7.375 7.75464H7.3825V7.76964H7.375V7.75464ZM13 7.75464C13 8.16885 12.8321 8.50464 12.625 8.50464C12.4179 8.50464 12.25 8.16885 12.25 7.75464C12.25 7.34043 12.4179 7.00464 12.625 7.00464C12.8321 7.00464 13 7.34043 13 7.75464ZM12.625 7.75464H12.6325V7.76964H12.625V7.75464Z" stroke="#0F172A" stroke-width="1.5" stroke-linecap="round" stroke-linejoin="round"/>
</svg>
