<svg width="20" height="20" viewBox="0 0 20 20" fill="none" xmlns="http://www.w3.org/2000/svg">
<path d="M14.7148 13.8808L11.179 17.4167C11.0244 17.5715 10.8407 17.6942 10.6386 17.778C10.4365 17.8618 10.2199 17.9049 10.0011 17.9049C9.78228 17.9049 9.56564 17.8618 9.36352 17.778C9.16141 17.6942 8.97779 17.5715 8.82315 17.4167L5.28649 13.8808C4.35417 12.9485 3.71927 11.7606 3.46206 10.4674C3.20485 9.17419 3.3369 7.83376 3.84149 6.61561C4.34608 5.39745 5.20057 4.35628 6.29689 3.62376C7.39321 2.89123 8.68213 2.50024 10.0007 2.50024C11.3192 2.50024 12.6081 2.89123 13.7044 3.62376C14.8007 4.35628 15.6552 5.39745 16.1598 6.61561C16.6644 7.83376 16.7965 9.17419 16.5392 10.4674C16.282 11.7606 15.6471 12.9485 14.7148 13.8808V13.8808Z" stroke="#8E8E8E" stroke-width="2" stroke-linecap="round" stroke-linejoin="round"/>
<path d="M11.7678 10.9345C12.2366 10.4657 12.5 9.82979 12.5 9.16675C12.5 8.50371 12.2366 7.86782 11.7678 7.39898C11.2989 6.93014 10.663 6.66675 10 6.66675C9.33696 6.66675 8.70107 6.93014 8.23223 7.39898C7.76339 7.86782 7.5 8.50371 7.5 9.16675C7.5 9.82979 7.76339 10.4657 8.23223 10.9345C8.70107 11.4034 9.33696 11.6667 10 11.6667C10.663 11.6667 11.2989 11.4034 11.7678 10.9345Z" stroke="#8E8E8E" stroke-width="2" stroke-linecap="round" stroke-linejoin="round"/>
</svg>
