<svg width="17" height="16" viewBox="0 0 17 16" fill="none" xmlns="http://www.w3.org/2000/svg">
<path d="M7.70395 10.2503C7.70395 10.4492 7.78297 10.64 7.92362 10.7806C8.06427 10.9213 8.25504 11.0003 8.45395 11.0003C8.65286 11.0003 8.84363 10.9213 8.98428 10.7806C9.12493 10.64 9.20395 10.4492 9.20395 10.2503V4.56032L11.4239 6.78032C11.4926 6.854 11.5754 6.91311 11.6674 6.9541C11.7594 6.99509 11.8587 7.01713 11.9594 7.01891C12.0601 7.02068 12.1602 7.00216 12.2535 6.96444C12.3469 6.92672 12.4318 6.87057 12.503 6.79936C12.5742 6.72814 12.6304 6.6433 12.6681 6.54991C12.7058 6.45653 12.7243 6.3565 12.7225 6.25579C12.7208 6.15509 12.6987 6.05578 12.6577 5.96378C12.6167 5.87178 12.5576 5.78898 12.4839 5.72032L8.98395 2.22032C8.84332 2.07987 8.6527 2.00098 8.45395 2.00098C8.2552 2.00098 8.06457 2.07987 7.92395 2.22032L4.42395 5.72032C4.29147 5.86249 4.21934 6.05054 4.22277 6.24484C4.2262 6.43914 4.30491 6.62453 4.44233 6.76194C4.57974 6.89935 4.76512 6.97806 4.95943 6.98149C5.15373 6.98492 5.34177 6.9128 5.48395 6.78032L7.70395 4.56032V10.2503Z" fill="#0994D0"/>
<path d="M3.9541 9.75C3.9541 9.55109 3.87508 9.36032 3.73443 9.21967C3.59378 9.07902 3.40301 9 3.2041 9C3.00519 9 2.81442 9.07902 2.67377 9.21967C2.53312 9.36032 2.4541 9.55109 2.4541 9.75V11.25C2.4541 11.9793 2.74383 12.6788 3.25956 13.1945C3.77528 13.7103 4.47476 14 5.2041 14H11.7041C12.4334 14 13.1329 13.7103 13.6486 13.1945C14.1644 12.6788 14.4541 11.9793 14.4541 11.25V9.75C14.4541 9.55109 14.3751 9.36032 14.2344 9.21967C14.0938 9.07902 13.903 9 13.7041 9C13.5052 9 13.3144 9.07902 13.1738 9.21967C13.0331 9.36032 12.9541 9.55109 12.9541 9.75V11.25C12.9541 11.94 12.3941 12.5 11.7041 12.5H5.2041C4.5141 12.5 3.9541 11.94 3.9541 11.25V9.75Z" fill="#0994D0"/>
</svg>
